# xmcd
#
# Track frame offsets: 
#        150
#        16635
#        32875
#        45972
#        61537
#        77870
#        90532
#        105375
#        121740
#        139395
#        156980
#
# Disc length: 2316 seconds
#
# Revision: 0
# Processed by: cddbd v1.5.2PL0 Copyright (c) Steve Scherf et al.
# Submitted via: ExactAudioCopyFreeDBPlugin 1.0
#
DISCID=79090a0b
DTITLE=Wendy DeWitt And Blue Saloon - Wendy DeWitt And Blue Saloon
DYEAR=1993
DGENRE=Blues
TTITLE0=Hard Times
TTITLE1=I've Been Living The Blues
TTITLE2=If Lve Won't Let Me
TTITLE3=Pasta, Beans, And Rice
TTITLE4=Your Sweetness
TTITLE5=I Love A Lover Like You
TTITLE6=Baby You're Gone
TTITLE7=Soul Shake
TTITLE8=Gypsy Good Time
TTITLE9=Wide River
TTITLE10=Never Fade Away
EXTD=
EXTT0=
EXTT1=
EXTT2=
EXTT3=
EXTT4=
EXTT5=
EXTT6=
EXTT7=
EXTT8=
EXTT9=
EXTT10=
PLAYORDER=
